# xmcd CD database file
#
# Track frame offsets:
#	150
#	16514
#	32878
#	50114
#	67350
#	82076
#	96802
#	114020
#	131238
#	144751
#	158264
#	167318
#	176372
#	188509
#	200646
#	210602
#
# Disc length: 2940 seconds
#
# Revision: 0
# Processed by: cddbd v1.5.2PL0 Copyright (c) Steve Scherf et al.
# Submitted via: CDex 1.70beta2
#
DISCID=cd0b7a10
DTITLE=Hal Leonard Play-Along -  Volume 18 - Jazz Standards
DYEAR=1900
DGENRE=Jazz
TTITLE0=All the Things You Are (DEMO)
TTITLE1=All the Things You Are (PLAY-ALONG)
TTITLE2=Bluesette (DEMO)
TTITLE3=Bluesette (PLAY-ALONG)
TTITLE4=Easy Living (DEMO)
TTITLE5=Easy Living (PLAY-ALONG)
TTITLE6=I'll Remember April (DEMO)
TTITLE7=I'll Remember April (PLAY-ALONG)
TTITLE8=Isn't It Romantic (DEMO)
TTITLE9=Isn't It Romantic (PLAY-ALONG)
TTITLE10=Stella by Starlight (DEMO)
TTITLE11=Stella by Starlight (PLAY-ALONG)
TTITLE12=Tangerine (DEMO)
TTITLE13=Tangerine (PLAY-ALONG)
TTITLE14=Yesterdays (DEMO)
TTITLE15=Yesterdays (PLAY-ALONG)
EXTD=
EXTT0=
EXTT1=
EXTT2=
EXTT3=
EXTT4=
EXTT5=
EXTT6=
EXTT7=
EXTT8=
EXTT9=
EXTT10=
EXTT11=
EXTT12=
EXTT13=
EXTT14=
EXTT15=
PLAYORDER=
